<svg width="32" height="32" viewBox="0 0 32 32" fill="none" xmlns="http://www.w3.org/2000/svg">
  <!-- Simplified 32px toolbar icon -->
  <defs>
    <linearGradient id="bgGrad32" x1="0%" y1="0%" x2="100%" y2="100%">
      <stop offset="0%" style="stop-color:#3558f5;stop-opacity:1" />
      <stop offset="100%" style="stop-color:#2441db;stop-opacity:1" />
    </linearGradient>
  </defs>
  
  <!-- Background -->
  <rect x="2" y="2" width="28" height="28" rx="6" fill="url(#bgGrad32)"/>
  
  <!-- "C" simplified for small size -->
  <path d="M 16 7 
           A 7 7 0 0 1 23 14
           A 7 7 0 0 1 23 18
           A 7 7 0 0 1 16 25
           L 16 22
           A 4 4 0 0 0 20 18
           A 4 4 0 0 0 20 14
           A 4 4 0 0 0 16 10
           Z" 
        fill="#ffffff"/>
  
  <!-- Chevron -->
  <path d="M 18 14 L 21 16 L 18 18 L 18 17 L 19 16 L 18 15 Z" 
        fill="#ffffff" opacity="0.9"/>
</svg>
